<svg xmlns="http://www.w3.org/2000/svg" width="109" height="109" viewBox="0 0 109 109"><defs><style>.a{stroke:#222;}</style></defs><g transform="translate(21.023 -39.433) rotate(45)"><g transform="translate(56.825 0)"><path class="a" d="M120.195,25.847a16.59,16.59,0,0,0-11.607-6.712c-5.6-.605-11.242-.931-16.885-.984a29.017,29.017,0,0,0-1.119-7.626C88.8,4.5,85.08.865,79.839.02a1.544,1.544,0,1,0-.492,3.048c4.025.649,6.8,3.43,8.256,8.266a26.049,26.049,0,0,1,1.01,6.817c-5.687.049-11.37.375-17.017.985a16.535,16.535,0,0,0-14.43,19.787,1.544,1.544,0,0,0,1.51,1.231,1.562,1.562,0,0,0,.315-.032q.847-.175,1.695-.34a25.472,25.472,0,0,0-1.426,8.68A35.5,35.5,0,0,0,74.546,78.283a46.333,46.333,0,0,0,15.2,7.195,1.538,1.538,0,0,0,.686,0,46.327,46.327,0,0,0,15.2-7.195,35.5,35.5,0,0,0,15.286-29.823,25.471,25.471,0,0,0-1.426-8.68q.847.166,1.693.34a1.544,1.544,0,0,0,1.825-1.2A16.549,16.549,0,0,0,120.195,25.847ZM113.506,65.34a34.079,34.079,0,0,1-9.585,10.376A44.642,44.642,0,0,1,90.093,82.38a44.639,44.639,0,0,1-13.828-6.664A34.08,34.08,0,0,1,66.68,65.34a33,33,0,0,1-4.332-16.879,21.351,21.351,0,0,1,1.959-9.343,152.205,152.205,0,0,1,51.572,0,21.348,21.348,0,0,1,1.959,9.343A33,33,0,0,1,113.506,65.34Zm6.714-28.565a155.466,155.466,0,0,0-60.254,0A13.448,13.448,0,0,1,71.928,22.2a169.389,169.389,0,0,1,36.328,0,13.448,13.448,0,0,1,11.963,14.57Z" transform="translate(-56.825 0)"/></g></g></svg>