<svg id="Layer_1" data-name="Layer 1" xmlns="http://www.w3.org/2000/svg" viewBox="0 0 104.63 111.16">
  <defs>
    <style>
      .cls-1 {
        fill: #231f20;
        stroke: #231f20;
        stroke-linecap: round;
        stroke-linejoin: round;
        stroke-width: 7px;
      }
    </style>
  </defs>
  <title>acorn-logo-stroked</title>
  <path class="cls-1" d="M107.38,67.81a23.1,23.1,0,0,0-4.82-18q-7.38-9.16-15.65-17.59a40.56,40.56,0,0,0,6.4-8.61c4.18-7.69,4.09-14.93-.23-20.92a2.15,2.15,0,0,0-3.54,2.45l0,.07c3.32,4.6,3.32,10.07,0,16.26a36.56,36.56,0,0,1-5.72,7.71Q75.4,20.83,66.14,13.36a23,23,0,0,0-32.37,3.47c-.46.58-.9,1.19-1.31,1.81a2.16,2.16,0,0,0,.27,2.7,2.33,2.33,0,0,0,.35.27l2,1.34a35.32,35.32,0,0,0-9.95,7.14,49.45,49.45,0,0,0-14.31,44.4A64.53,64.53,0,0,0,18.7,96.54a2.07,2.07,0,0,0,.68.67,64.47,64.47,0,0,0,22,7.88A49.41,49.41,0,0,0,85.83,90.78a35.37,35.37,0,0,0,7.14-10c.45.67.89,1.34,1.33,2a2.16,2.16,0,0,0,3,.61h0A23,23,0,0,0,107.38,67.81ZM61.92,100.1a47.36,47.36,0,0,1-19.65.78,62.21,62.21,0,0,1-20.18-7,62.39,62.39,0,0,1-7-20.17A47.52,47.52,0,0,1,15.82,54,46,46,0,0,1,28.17,33.13,29.71,29.71,0,0,1,39.3,25.86,211.89,211.89,0,0,1,90.06,76.63,29.65,29.65,0,0,1,82.8,87.75,45.88,45.88,0,0,1,61.92,100.1ZM96.64,78.59A216.3,216.3,0,0,0,37.33,19.28a18.71,18.71,0,0,1,26.12-2.57A235.24,235.24,0,0,1,99.21,52.47a18.72,18.72,0,0,1-2.56,26.12Z" transform="translate(-6.52 1.76)"/>
</svg>
