<svg xmlns="http://www.w3.org/2000/svg" width="22.334" height="19.98" viewBox="0 0 22.334 19.98">
  <defs>
    <style>
      .cls-1 {
        fill: #4d4d4d;
      }
    </style>
  </defs>
  <path id="clip-line" class="cls-1" d="M16.038,13.561a.558.558,0,0,1,0,.8.578.578,0,0,1-.811,0L10.611,9.852l-.02-.02a2.109,2.109,0,0,0-2.077-.785,1.477,1.477,0,0,0-.569.3,1.277,1.277,0,0,0-.355.515,1.93,1.93,0,0,0,.583,1.967l8.4,8.27.033.033a3.346,3.346,0,0,0,3.45.99,2.925,2.925,0,0,0,1.065-.627,2.63,2.63,0,0,0,.67-1.016c.368-1.036.094-2.416-1.313-3.855-1.286-1.274-2.5-2.581-3.7-3.868a59.149,59.149,0,0,0-7.6-7.254,4.872,4.872,0,0,0-3.785-.871,4.988,4.988,0,0,0-1.561.554,4.036,4.036,0,0,0-1.2,1.016,3.545,3.545,0,0,0-.663,2.911c.355,1.96,1.481,3.069,2.841,4.4l.422.416,4.321,4.3,1.461,1.452a.564.564,0,0,1,0,.8.585.585,0,0,1-.811,0L8.742,18.03l-4.321-4.3-.415-.409c-1.494-1.472-2.74-2.693-3.162-5a4.633,4.633,0,0,1,.884-3.8A5.2,5.2,0,0,1,3.261,3.219a5.952,5.952,0,0,1,1.93-.686,6.017,6.017,0,0,1,4.69,1.089,60.033,60.033,0,0,1,7.738,7.386c1.172,1.267,2.365,2.548,3.672,3.835l.013.013c1.755,1.8,2.07,3.6,1.568,5.01a3.771,3.771,0,0,1-.951,1.459,4.013,4.013,0,0,1-1.494.884,4.482,4.482,0,0,1-4.636-1.274c-.007-.007-.02-.013-.027-.026l-8.4-8.27-.02-.02a3,3,0,0,1-.824-3.142,2.4,2.4,0,0,1,.67-.95,2.467,2.467,0,0,1,1.032-.548,3.236,3.236,0,0,1,3.223,1.109l4.6,4.495Z" transform="translate(-0.754 -2.436)"/>
</svg>
