<svg xmlns="http://www.w3.org/2000/svg" width="23.326" height="24" viewBox="0 0 23.326 24"><path d="M15.113,23.155a3.492,3.492,0,0,1-.4,1.1,6.278,6.278,0,0,1-.781.923,6.721,6.721,0,0,1-1.052.618,3.687,3.687,0,0,1-2.417,0,3.254,3.254,0,0,1-1.052-.618,3.4,3.4,0,0,1-1.188-2.057.381.381,0,0,1,.3-.435l.068-.007h6.178a.377.377,0,0,1,.373.373.524.524,0,0,1-.014.1Zm-1.48-19.8a8.938,8.938,0,0,1,.883.285,8,8,0,0,1,1.208.6.3.3,0,0,0,.048.027,7.888,7.888,0,0,1,1.962,1.7,8.6,8.6,0,0,1,.754,1.086,7.858,7.858,0,0,1,.57,1.208,7.438,7.438,0,0,1,.367,1.317,7.86,7.86,0,0,1,.122,1.392v1.507c0,.482.007.95.007,1.412V13.9a10.385,10.385,0,0,0,.306,2.451,5.983,5.983,0,0,0,.394,1.093A7.035,7.035,0,0,0,20.87,18.5a6.319,6.319,0,0,0,.9,1,10.367,10.367,0,0,0,1.29,1,.619.619,0,0,1,.17.849.608.608,0,0,1-.509.272H.611A.608.608,0,0,1,0,21.017a.6.6,0,0,1,.3-.523,9.954,9.954,0,0,0,1.276-1,6.3,6.3,0,0,0,.889-1c.007-.007.014-.02.02-.027a7.188,7.188,0,0,0,.591-1.032,6.859,6.859,0,0,0,.4-1.1c0-.007.007-.014.007-.02A8.585,8.585,0,0,0,3.7,15.151a10.883,10.883,0,0,0,.075-1.263v-2.9A7.974,7.974,0,0,1,3.9,9.6a7.053,7.053,0,0,1,.367-1.324,8.662,8.662,0,0,1,.577-1.215A8.063,8.063,0,0,1,5.6,5.965V5.958a7.689,7.689,0,0,1,.937-.944,7.883,7.883,0,0,1,1.086-.781,7.226,7.226,0,0,1,1.222-.591,7.749,7.749,0,0,1,.9-.278,1.883,1.883,0,0,1,.543-.9A2.037,2.037,0,0,1,11.691,2a2.05,2.05,0,0,1,1.385.475,1.842,1.842,0,0,1,.543.889Zm.435,1.426a6.294,6.294,0,0,0-1.039-.312.613.613,0,0,1-.53-.536.888.888,0,0,0-.231-.564.857.857,0,0,0-.584-.163.85.85,0,0,0-.577.156.857.857,0,0,0-.224.57.6.6,0,0,1-.5.53,6.862,6.862,0,0,0-1.107.312,6.48,6.48,0,0,0-1.025.5A6.572,6.572,0,0,0,5.9,7.662,7.317,7.317,0,0,0,5.4,8.7a5.992,5.992,0,0,0-.312,1.107,6.576,6.576,0,0,0-.1,1.175v2.9A10.73,10.73,0,0,1,4.9,15.293a9.789,9.789,0,0,1-.251,1.317c0,.007-.007.02-.007.027a7.918,7.918,0,0,1-.475,1.3,7.635,7.635,0,0,1-.693,1.2.142.142,0,0,1-.027.041,7.407,7.407,0,0,1-1.066,1.2l-.014.014H20.911A7.394,7.394,0,0,1,19.852,19.2a8,8,0,0,1-1.195-2.553,11.031,11.031,0,0,1-.251-1.351,12.856,12.856,0,0,1-.088-1.392c-.007-.455-.007-.93-.007-1.419-.007-.917-.007-1.412-.007-1.507a6.688,6.688,0,0,0-.1-1.175,5.989,5.989,0,0,0-.306-1.1,6.545,6.545,0,0,0-.489-1.032,7,7,0,0,0-.638-.923,6.692,6.692,0,0,0-.788-.794,7.205,7.205,0,0,0-.876-.638l-.041-.02A6.859,6.859,0,0,0,14.04,4.79Z" transform="translate(0 -2)"/></svg>