<svg xmlns="http://www.w3.org/2000/svg" width="22.203" height="20" viewBox="0 0 22.203 20"><defs><style>.a{fill:#a3a3a3;}</style></defs><path class="a" d="M13.085,13.629a2.873,2.873,0,0,1-.337.914,2.963,2.963,0,0,1-.651.771,2.84,2.84,0,0,1-.874.514,3.035,3.035,0,0,1-2.011,0,2.84,2.84,0,0,1-.874-.514,2.963,2.963,0,0,1-.651-.771,2.892,2.892,0,0,1-.343-.948.31.31,0,0,1,.251-.36l.057-.006h5.136a.307.307,0,0,1,.308.308.441.441,0,0,1-.011.086ZM20.123-1.3a.5.5,0,0,1,.674.251.5.5,0,0,1-.251.674L-.636,9.373a.5.5,0,0,1-.674-.251.5.5,0,0,1,.251-.674ZM11.851-2.84a7.3,7.3,0,0,1,.731.24,6.577,6.577,0,0,1,1.005.5c.011.006.023.017.034.023a7.379,7.379,0,0,1,.863.623,7.239,7.239,0,0,1,.777.788c.074.086.143.177.211.268l-.948.434a.4.4,0,0,1-.046-.057,5.946,5.946,0,0,0-.651-.663,6.557,6.557,0,0,0-.726-.531l-.034-.017a5.62,5.62,0,0,0-.851-.423,5.77,5.77,0,0,0-.863-.263.509.509,0,0,1-.44-.446.761.761,0,0,0-.189-.468.715.715,0,0,0-.486-.137.731.731,0,0,0-.48.126.764.764,0,0,0-.189.474.5.5,0,0,1-.411.44,6.069,6.069,0,0,0-.92.257,5.84,5.84,0,0,0-.851.411,6.189,6.189,0,0,0-.765.548,5.194,5.194,0,0,0-.657.668A5.627,5.627,0,0,0,5.43.724a6.67,6.67,0,0,0-.411.863,5.237,5.237,0,0,0-.343,1.9v1.08L3.66,5.032V3.484a6.581,6.581,0,0,1,.1-1.16,5.82,5.82,0,0,1,.308-1.1A6.84,6.84,0,0,1,4.551.21,6.633,6.633,0,0,1,5.185-.7V-.7a6.331,6.331,0,0,1,.777-.788,6.841,6.841,0,0,1,.9-.651,6.173,6.173,0,0,1,1.017-.491,6.688,6.688,0,0,1,.748-.234,1.514,1.514,0,0,1,.451-.743A1.671,1.671,0,0,1,10.246-4a1.72,1.72,0,0,1,1.154.394,1.54,1.54,0,0,1,.451.743Zm4.861,5.456a6.523,6.523,0,0,1,.057.885V4.752c0,.4.006.794.006,1.177v.006a8.01,8.01,0,0,0,.069,1.04,7.84,7.84,0,0,0,.183.994,5.059,5.059,0,0,0,.326.908,5.776,5.776,0,0,0,.514.88,5.452,5.452,0,0,0,.743.834,8.9,8.9,0,0,0,1.068.834.506.506,0,0,1-.286.925H1.02a.51.51,0,0,1-.508-.508.5.5,0,0,1,.246-.434,9.191,9.191,0,0,0,1.063-.828,4.914,4.914,0,0,0,.737-.84c.006-.006.011-.017.017-.023A6.578,6.578,0,0,0,3.048,8.9l1.308-.606a6.255,6.255,0,0,1-.371.988,7.263,7.263,0,0,1-.571,1,.057.057,0,0,1-.023.029,6.358,6.358,0,0,1-.885,1l-.011.011H17.913a6.15,6.15,0,0,1-.885-.994,7.027,7.027,0,0,1-.6-1.034A6.766,6.766,0,0,1,16.033,8.2a10.2,10.2,0,0,1-.211-1.12,9.379,9.379,0,0,1-.069-1.16c-.006-.377-.006-.771-.006-1.183,0-.76-.006-1.177-.006-1.251,0-.149-.006-.291-.017-.434L16.7,2.6Z" transform="translate(1.358 4)"/></svg>