<svg xmlns="http://www.w3.org/2000/svg" width="16.346" height="16.109" viewBox="0 0 16.346 16.109">
  <defs>
    <style>
      .cls-1 {
        fill: #898989;
      }
    </style>
  </defs>
  <path id="calendar-blank-line" class="cls-1" d="M11.85.617A.7.7,0,0,1,12.618,0a.707.707,0,0,1,.768.617V3.33a.7.7,0,0,1-.768.617.707.707,0,0,1-.768-.617Zm-6.92,0A.7.7,0,0,1,5.7,0a.707.707,0,0,1,.768.617V3.33a.7.7,0,0,1-.768.617A.707.707,0,0,1,4.93,3.33ZM1.845,5.938H16.489V2.812a.361.361,0,0,0-.112-.268.382.382,0,0,0-.272-.111H14.7a.419.419,0,1,1,0-.838h1.4a1.242,1.242,0,0,1,.875.361,1.216,1.216,0,0,1,.366.862V14.886a1.206,1.206,0,0,1-.366.862,1.253,1.253,0,0,1-.875.361H2.241a1.242,1.242,0,0,1-.875-.361A1.216,1.216,0,0,1,1,14.886V2.818a1.206,1.206,0,0,1,.366-.862A1.253,1.253,0,0,1,2.241,1.6h1.5a.419.419,0,1,1,0,.838h-1.5a.4.4,0,0,0-.278.111.375.375,0,0,0-.112.274V5.944Zm14.644.838H1.845v8.1a.381.381,0,0,0,.39.384H16.1a.4.4,0,0,0,.278-.111.375.375,0,0,0,.112-.274ZM7.7,2.428a.419.419,0,1,1,0-.838h2.86a.419.419,0,1,1,0,.838Z" transform="translate(-1)"/>
</svg>
