<?xml version="1.0" encoding="utf-8"?>
<!-- Generator: Adobe Illustrator 24.0.0, SVG Export Plug-In . SVG Version: 6.00 Build 0)  -->
<svg version="1.1" id="Layer_1" xmlns="http://www.w3.org/2000/svg" xmlns:xlink="http://www.w3.org/1999/xlink" x="0px" y="0px"
	 viewBox="0 0 154 126" style="enable-background:new 0 0 154 126;" xml:space="preserve">
<style type="text/css">
	.st0{fill:none;stroke:#FFFFFF;stroke-miterlimit:10;}
	.st1{fill:none;stroke:#FFFFFF;stroke-width:6;}
	.st2{fill:none;}
	.st3{fill:#FFFFFF;}
</style>
<g id="hierarchy_4d4d4d" transform="translate(-1623 -517)">
	<g id="Rectangle_56" transform="translate(1679 517)">
		<path class="st0" d="M8,0h26c4.4,0,8,3.6,8,8v16c0,4.4-3.6,8-8,8H8c-4.4,0-8-3.6-8-8V8C0,3.6,3.6,0,8,0z"/>
		<path class="st1" d="M8,3h26c2.8,0,5,2.2,5,5v16c0,2.8-2.2,5-5,5H8c-2.8,0-5-2.2-5-5V8C3,5.2,5.2,3,8,3z"/>
	</g>
	<g id="Rectangle_57" transform="translate(1623 595)">
		<path class="st0" d="M34,0H8C3.6,0,0,3.6,0,8v16c0,4.4,3.6,8,8,8h6.7c0.7-1.7,2.1-2.9,4.4-2.9c0.6,0,1.1,0.1,1.6,0.2
			c0.5-0.1,1-0.2,1.6-0.2c2.3,0,3.8,1.3,4.4,2.9H34c4.4,0,8-3.6,8-8V8C42,3.6,38.4,0,34,0z"/>
		<path class="st1" d="M8,3h26c2.8,0,5,2.2,5,5v16c0,2.8-2.2,5-5,5H8c-2.8,0-5-2.2-5-5V8C3,5.2,5.2,3,8,3z"/>
	</g>
	<g id="Rectangle_58" transform="translate(1679 595)">
		<path class="st0" d="M8,0h26c4.4,0,8,3.6,8,8v16c0,4.4-3.6,8-8,8H8c-4.4,0-8-3.6-8-8V8C0,3.6,3.6,0,8,0z"/>
		<path class="st1" d="M8,3h26c2.8,0,5,2.2,5,5v16c0,2.8-2.2,5-5,5H8c-2.8,0-5-2.2-5-5V8C3,5.2,5.2,3,8,3z"/>
	</g>
	<g id="Rectangle_59" transform="translate(1735 595)">
		<path class="st0" d="M34,0H8C3.6,0,0,3.6,0,8v16c0,4.4,3.6,8,8,8h9.4c0.6-0.2,1.2-0.3,1.9-0.3c0.7,0,1.3,0.1,1.8,0.3
			c0.7-1.4,2.1-2.5,4.3-2.5c2.1,0,3.5,1.1,4.3,2.5H34c4.4,0,8-3.6,8-8V8C42,3.6,38.4,0,34,0z"/>
		<path class="st1" d="M8,3h26c2.8,0,5,2.2,5,5v16c0,2.8-2.2,5-5,5H8c-2.8,0-5-2.2-5-5V8C3,5.2,5.2,3,8,3z"/>
	</g>
	<line id="Line_24" class="st1" x1="1700.5" y1="597.5" x2="1700.5" y2="547.5"/>
	<g id="Path_51" transform="translate(1641 563)">
		<path class="st2" d="M106,0H12C5.4,0,0,5.4,0,12v49.2c0.3-0.1,0.7-0.1,1.1-0.1c0.6,0,1.1,0.1,1.6,0.2c0.5-0.2,1-0.2,1.6-0.2
			C7,61.1,8.6,62.9,9,65c3.7,0.2,7.5,0.6,11.2,1c10.5,1.1,20.9,1.7,31.4,2c19,0.5,37.9,0,56.9-0.1c0.3-2.2,1.9-4.2,4.8-4.2
			c0.7,0,1.3,0.1,1.8,0.3c0.6-1.1,1.5-2,2.9-2.4V12C118,5.4,112.6,0,106,0z"/>
		<path class="st3" d="M114.3,32.2c0.2,0,0.3,0,0.5,0c0.3,0,0.5,0,0.8,0.1c0.2,0,0.4-0.1,0.7-0.1c0.2,0,0.4,0,0.6,0c0,0,0,0,0.1,0
			c0.2,0,0.3,0,0.5,0c0.2,0,0.4,0,0.6-0.1V12c0-6.6-5.4-12-12-12H12C5.4,0,0,5.4,0,12v20.3c0.2,0,0.4,0,0.6,0c0.1,0,0.2,0,0.3,0
			c0.2,0,0.3,0,0.5,0c0.1,0,0.1,0,0.2,0c0.1,0,0.2,0,0.3,0c0,0,0,0,0.1,0c0.2,0,0.4,0,0.5,0c0.1,0,0.2,0,0.3,0c0.2,0,0.3,0,0.5,0
			c0.1,0,0.2,0,0.3,0c0.1,0,0.3,0,0.4,0c0.1,0,0.2,0,0.3,0c0.2,0,0.3,0,0.5,0c0.3,0,0.5,0,0.7,0.1c0.1,0,0.2,0,0.4,0V12
			c0-3.3,2.7-6,6-6h94c3.3,0,6,2.7,6,6v20.2c0.1,0,0.3,0,0.4,0c0.2,0,0.4,0,0.6,0c0,0,0.1,0,0.1,0c0.1,0,0.1,0,0.2,0
			c0.1,0,0.3,0,0.4,0C113.9,32.1,114.1,32.2,114.3,32.2z"/>
	</g>
</g>
</svg>
