<svg id="Layer_1" data-name="Layer 1" xmlns="http://www.w3.org/2000/svg" viewBox="0 0 155 115.22"><defs><style>.cls-1,.cls-2{fill:#fff;stroke:#fff;}.cls-1{stroke-miterlimit:10;}.cls-2{stroke-width:6px;}</style></defs><title>hierarchy_white</title><g id="hierarchy_4d4d4d" data-name="hierarchy 4d4d4d"><g id="Rectangle_56" data-name="Rectangle 56"><rect class="cls-1" x="56.5" y="0.5" width="42" height="32" rx="8"/><rect class="cls-2" x="59.5" y="3.5" width="36" height="26" rx="5"/></g><g id="Rectangle_57" data-name="Rectangle 57"><path class="cls-1" d="M34,78H8a8,8,0,0,0-8,8v16a8,8,0,0,0,8,8h6.67a4.55,4.55,0,0,1,4.44-3,5.3,5.3,0,0,1,1.59.24,5.3,5.3,0,0,1,1.59-.24,4.55,4.55,0,0,1,4.44,3H34a8,8,0,0,0,8-8V86A8,8,0,0,0,34,78Z" transform="translate(0.5 0.5)"/><rect class="cls-2" x="3.5" y="81.5" width="36" height="26" rx="5"/></g><g id="Rectangle_58" data-name="Rectangle 58"><rect class="cls-1" x="56.5" y="78.5" width="42" height="32" rx="8"/><rect class="cls-2" x="59.5" y="81.5" width="36" height="26" rx="5"/></g><g id="Rectangle_59" data-name="Rectangle 59"><path class="cls-1" d="M146,78H120a8,8,0,0,0-8,8v16a8,8,0,0,0,8,8h9.39a5.35,5.35,0,0,1,3.67,0,4.85,4.85,0,0,1,8.52,0H146a8,8,0,0,0,8-8V86A8,8,0,0,0,146,78Z" transform="translate(0.5 0.5)"/><rect class="cls-2" x="115.5" y="81.5" width="36" height="26" rx="5"/></g><line id="Line_24" data-name="Line 24" class="cls-2" x1="78" y1="81" x2="78" y2="31"/><g id="Path_51" data-name="Path 51"><path class="cls-1" d="M124,46H30A12,12,0,0,0,18,58v49.16a5.65,5.65,0,0,1,1.11-.11,5.37,5.37,0,0,1,1.56.24,5.46,5.46,0,0,1,1.62-.24A4.62,4.62,0,0,1,27,111c3.72.2,7.45.59,11.2,1q15.68,1.58,31.41,2c19,.51,37.91,0,56.86-.08a4.65,4.65,0,0,1,4.78-4.25,5.3,5.3,0,0,1,1.8.31,4.42,4.42,0,0,1,2.93-2.36V58A12,12,0,0,0,124,46Z" transform="translate(0.5 0.5)"/><path class="cls-1" d="M132.34,78.18a4.21,4.21,0,0,1,.51,0,6.49,6.49,0,0,1,.78.06,5.2,5.2,0,0,1,.69-.06,4.93,4.93,0,0,1,.55,0h0c.16,0,.3,0,.46,0a5.92,5.92,0,0,1,.62-.06V58a12,12,0,0,0-12-12H30A12,12,0,0,0,18,58V78.26q.3,0,.6,0c.12,0,.22,0,.33,0a4.41,4.41,0,0,1,.52,0l.18,0,.3,0H20a4.89,4.89,0,0,1,.54,0l.34,0,.47,0,.35,0,.43,0,.34,0,.47,0a5.19,5.19,0,0,1,.7.07l.36,0V58a6,6,0,0,1,6-6h94a6,6,0,0,1,6,6V78.16l.42,0a5.17,5.17,0,0,1,.57,0h.28c.14,0,.29,0,.44,0A6.26,6.26,0,0,1,132.34,78.18Z" transform="translate(0.5 0.5)"/></g></g></svg>