<?xml version="1.0" encoding="utf-8"?>
<!-- Generator: Adobe Illustrator 24.0.1, SVG Export Plug-In . SVG Version: 6.00 Build 0)  -->
<svg version="1.1" id="Layer_1" xmlns="http://www.w3.org/2000/svg" xmlns:xlink="http://www.w3.org/1999/xlink" x="0px" y="0px"
	 viewBox="0 0 154 126" style="enable-background:new 0 0 154 126;" xml:space="preserve">
<style type="text/css">
	.st0{fill:none;stroke:#5F65FF;stroke-miterlimit:10;}
	.st1{fill:none;stroke:#5F65FF;stroke-width:6;}
	.st2{fill:#5F65FF;}
</style>
<g id="hierarchy_4d4d4d" transform="translate(-1623 -517)">
	<g id="Rectangle_56" transform="translate(1679 517)">
		<path class="st0" d="M8,0h26c4.4,0,8,3.6,8,8v16c0,4.4-3.6,8-8,8H8c-4.4,0-8-3.6-8-8V8C0,3.6,3.6,0,8,0z"/>
		<path class="st1" d="M8,3h26c2.8,0,5,2.2,5,5v16c0,2.8-2.2,5-5,5H8c-2.8,0-5-2.2-5-5V8C3,5.2,5.2,3,8,3z"/>
	</g>
	<g id="Rectangle_57" transform="translate(1623 595)">
		<path class="st1" d="M8,3h26c2.8,0,5,2.2,5,5v16c0,2.8-2.2,5-5,5H8c-2.8,0-5-2.2-5-5V8C3,5.2,5.2,3,8,3z"/>
	</g>
	<g id="Rectangle_58" transform="translate(1679 595)">
		<path class="st0" d="M8,0h26c4.4,0,8,3.6,8,8v16c0,4.4-3.6,8-8,8H8c-4.4,0-8-3.6-8-8V8C0,3.6,3.6,0,8,0z"/>
		<path class="st1" d="M8,3h26c2.8,0,5,2.2,5,5v16c0,2.8-2.2,5-5,5H8c-2.8,0-5-2.2-5-5V8C3,5.2,5.2,3,8,3z"/>
	</g>
	<g id="Rectangle_59" transform="translate(1735 595)">
		<path class="st1" d="M8,3h26c2.8,0,5,2.2,5,5v16c0,2.8-2.2,5-5,5H8c-2.8,0-5-2.2-5-5V8C3,5.2,5.2,3,8,3z"/>
	</g>
	<line id="Line_24" class="st1" x1="1700.5" y1="597.5" x2="1700.5" y2="547.5"/>
	<g id="Path_51" transform="translate(1641 563)">
		<g>
			<path class="st2" d="M106.1,5.3H12C5.4,5.3,0,9.9,0,15.4v17.2c0.2,0,0.4,0,0.6,0c0.1,0,0.2,0,0.3,0c0.2,0,0.3,0,0.5,0
				c0.1,0,0.1,0,0.2,0c0.1,0,0.2,0,0.3,0c0,0,0,0,0.1,0c0.2,0,0.4,0,0.5,0c0.1,0,0.2,0,0.3,0c0.2,0,0.3,0,0.5,0c0.1,0,0.2,0,0.3,0
				c0.1,0,0.3,0,0.4,0c0.1,0,0.2,0,0.3,0c0.2,0,0.3,0,0.5,0c0.3,0,0.5,0,0.7,0.1c0.1,0,0.2,0,0.4,0V15.4c0-2.8,2.7-5.1,6-5.1h94
				c3.3,0,6,2.3,6,5.1v17.1c0.1,0,0.3,0,0.4,0c0.2,0,0.4,0,0.6,0h0.1c0.1,0,0.1,0,0.2,0c0.1,0,0.3,0,0.4,0c0.1,0,0.2,0,0.3,0
				c0.2,0,0.3,0,0.4,0c0.2,0,0.3,0,0.5,0c0.3,0,0.5,0,0.8,0.1c0.2,0,0.4-0.1,0.7-0.1c0.2,0,0.4,0,0.6,0c0,0,0,0,0.1,0
				c0.2,0,0.3,0,0.5,0s0.4,0,0.6-0.1v-17C118.1,9.9,112.6,5.3,106.1,5.3L106.1,5.3z"/>
		</g>
	</g>
</g>
</svg>
