<svg xmlns="http://www.w3.org/2000/svg" width="24.321" height="25.005" viewBox="0 0 24.321 25.005"><defs><style>.a{fill:#5f65ff;stroke:#5f65ff;}</style></defs><path class="a" d="M17.356,2.808,24.525-.5a.558.558,0,0,1,.742.277.575.575,0,0,1,.054.236v18.4a.557.557,0,0,1-.3.492l-7.371,4.451a.294.294,0,0,1-.047.027l-.007.007h-.02a.517.517,0,0,1-.432,0h-.02l-.007-.007a.169.169,0,0,1-.047-.027L9.965,19.068l-7.115,4.3A.56.56,0,0,1,2,22.886V3.429A.557.557,0,0,1,2.364,2.9L9.736-.5h.013L9.762-.5h.007a.47.47,0,0,1,.169-.034h.067a.747.747,0,0,1,.169.034h.007l.013.007h.013l7.169,3.311ZM9.392,18.1V.886l-6.279,2.9v18.1Zm7.405,3.79V3.786L10.518.886V18.1ZM24.2.886l-6.279,2.9v18.1L24.2,18.1Z" transform="translate(-1.5 1.057)"/></svg>