<svg xmlns="http://www.w3.org/2000/svg" width="17.814" height="18.332" viewBox="0 0 17.814 18.332">
  <defs>
    <style>
      .cls-1 {
        fill: #aaa;
      }
    </style>
  </defs>
  <path id="maps-lines" class="cls-1" d="M13.73,2.014,19.206-.515a.426.426,0,0,1,.567.211.439.439,0,0,1,.041.18V13.935a.426.426,0,0,1-.227.376l-5.631,3.4a.224.224,0,0,1-.036.021l-.005.005H13.9a.395.395,0,0,1-.33,0h-.015l-.005-.005a.129.129,0,0,1-.036-.021l-5.43-3.276L2.649,17.716A.428.428,0,0,1,2,17.35V2.488a.425.425,0,0,1,.278-.4L7.909-.51h.01l.01-.005h.005a.359.359,0,0,1,.129-.026h.052a.571.571,0,0,1,.129.026h.005l.01.005h.01l5.476,2.529ZM7.646,13.693V.546L2.85,2.761V16.588Zm5.656,2.9V2.761L8.506.546V13.693ZM18.959.546l-4.8,2.215V16.588l4.8-2.9Z" transform="translate(-2 0.554)"/>
</svg>
