<?xml version="1.0" encoding="utf-8"?>
<!-- Generator: Adobe Illustrator 24.0.0, SVG Export Plug-In . SVG Version: 6.00 Build 0)  -->
<svg version="1.1" id="Layer_1" xmlns="http://www.w3.org/2000/svg" xmlns:xlink="http://www.w3.org/1999/xlink" x="0px" y="0px"
	 viewBox="0 0 500 500" style="enable-background:new 0 0 500 500;" xml:space="preserve">
<style type="text/css">
	.st0{fill:none;stroke:#4D4D4D;stroke-width:20;stroke-miterlimit:10;}
	.st1{fill:#4D4D4D;stroke:#4D4D4D;stroke-width:6;stroke-miterlimit:10;}
	.st2{fill:#4D4D4D;stroke:#4D4D4D;stroke-width:6;stroke-miterlimit:9.9991;}
	.st3{fill:none;stroke:#4D4D4D;stroke-width:6;stroke-miterlimit:10;}
	.st4{fill:#4D4D4D;stroke:#4D4D4D;stroke-width:6;stroke-miterlimit:10.0009;}
</style>
<image style="display:none;overflow:visible;enable-background:new    ;" width="34" height="32" xlink:href="2772C6DDEA2C04DC.png"  transform="matrix(17.8248 0 0 17.2964 -47.827 -23.9502)">
</image>
<image style="display:none;overflow:visible;opacity:0.84;enable-background:new    ;" width="102" height="102" xlink:href="2772C6DDEA2C04DD.png"  transform="matrix(5.9945 0 0 5.9945 -50.5222 -55.7175)">
</image>
<image style="display:none;overflow:visible;enable-background:new    ;" width="85" height="85" xlink:href="2772C6DDEA2C04DB.png"  transform="matrix(5.9945 0 0 5.9945 -5 -9.6814)">
</image>
<g>
	<path class="st0" d="M113.6,167.1c17,23.9-0.2,65.1-38.4,92.2"/>
	<path class="st0" d="M17.7,154.6c0-76.8,53.8-139,120.3-139"/>
	<path class="st0" d="M282.4,146.2C282.4,74,217.8,15.5,138,15.5"/>
	<path class="st0" d="M45.6,432C7.5,370.1,20.9,292.8,75.5,259.2"/>
	<path class="st0" d="M157.4,461.8c-40.6,22.2-91,8.3-112.5-31.1"/>
	<path class="st0" d="M274.6,102.9c21.4,48.6-2.5,106.2-53.5,128.6"/>
	<path class="st0" d="M117.4,174.1c-9.7-27.1-54.3-35.8-99.7-19.5"/>
	<path class="st0" d="M203.3,472.4c-8.5-15.3-29.4-19.8-46.7-10.2"/>
	<line class="st0" x1="208.7" y1="477.4" x2="389.3" y2="477.4"/>
	<circle class="st1" cx="18.7" cy="153.6" r="8"/>
	<path class="st0" d="M139.8,389.4c-18.7-70.2,16.3-140.5,78.3-157"/>
	<ellipse transform="matrix(0.974 -0.2264 0.2264 0.974 -84.0075 41.5187)" class="st2" cx="139" cy="387" rx="7.3" ry="6.4"/>
	<path class="st0" d="M225.8,227.1c-1.5,5-7.6,7.6-13.7,5.8"/>
	<line class="st3" x1="215.5" y1="227.2" x2="220.2" y2="225.5"/>
	
		<ellipse transform="matrix(0.7821 -0.6232 0.6232 0.7821 -251.6437 231.4361)" class="st4" cx="205.1" cy="475.5" rx="7.7" ry="10.3"/>
	<path class="st0" d="M391,477.4c2.9-21.6-14.2-41.7-38-44.8"/>
	<path class="st0" d="M381.1,330c21.1,30.7,8.5,76-28.1,101.2"/>
	<path class="st0" d="M476.1,283.9c-3.8-29.9-31.1-50.9-60.9-47.1"/>
	<path class="st0" d="M483.6,149.8c-0.4-39.9-49.9-71.7-110.7-71.1"/>
	<path class="st0" d="M443.7,185.4c25.5-5.6,43.1-23.8,39.4-40.6"/>
	<ellipse class="st1" cx="390.4" cy="477.4" rx="7.8" ry="7.3"/>
	<line class="st0" x1="311.2" y1="175.3" x2="310.9" y2="77.9"/>
	<path class="st0" d="M372.4,79.2c0-32.7-15.6-59.1-34.7-59.1"/>
	<path class="st0" d="M310.9,80.3c0-33.3,11.9-60.2,26.8-60.2"/>
	<path class="st0" d="M310.9,172.2c4.4,22.4-37.4,49.3-93.3,60.3"/>
	<line class="st0" x1="445.7" y1="185" x2="412.4" y2="191.1"/>
	<path class="st0" d="M456.1,292.7c-10-14.2-36.1-13-58.4,2.8"/>
	<path class="st0" d="M465.8,295.5c7.1-2.4,11.6-8.2,10-12.9"/>
	<path class="st0" d="M454.6,291.1c5.5,4.9,12.5,5.9,15.6,2.3"/>
	<ellipse transform="matrix(0.8 -0.6 0.6 0.8 -189.0065 297.6028)" class="st1" cx="351.9" cy="432.3" rx="6.9" ry="7.5"/>
	<path class="st0" d="M393.8,200.3c-0.2,20.1,9.4,36.4,21.4,36.5"/>
	<path class="st0" d="M413.6,190.9c-11.8,2.6-20.7,7.4-20,10.8"/>
	<path class="st0" d="M397.7,295.5c-15.6,11.1-21.2,29.9-12.6,42.1"/>
	<circle class="st1" cx="414.8" cy="236.9" r="7.3"/>
	<circle class="st1" cx="372.4" cy="78.7" r="7.3"/>
</g>
</svg>
