<svg xmlns="http://www.w3.org/2000/svg" width="17.256" height="17" viewBox="0 0 17.256 17"><defs><style>.a{fill:#4d4d4d;}</style></defs><path class="a" d="M8.628,0a8.678,8.678,0,0,1,6.1,2.489,8.415,8.415,0,0,1,0,12.022,8.724,8.724,0,0,1-12.2,0,8.415,8.415,0,0,1,0-12.022A8.669,8.669,0,0,1,8.628,0Zm0,4.687a3.862,3.862,0,0,1,1.2.186l3.042-2.965a8.021,8.021,0,0,0-8.278-.118L7.63,4.819a3.824,3.824,0,0,1,1-.127Zm1.854.467a3.879,3.879,0,0,1,.879.648,3.764,3.764,0,0,1,.722.988l2.95-2.874a7.852,7.852,0,0,0-.81-.934,7.773,7.773,0,0,0-.805-.694l-2.94,2.865Zm1.868,2.307A3.7,3.7,0,0,1,12.5,8.5a3.739,3.739,0,0,1-.2,1.2l3,2.992a7.715,7.715,0,0,0,.106-8.214Zm-.336,2.879a3.8,3.8,0,0,1-.653.852,3.868,3.868,0,0,1-1.022.721l2.922,2.906a7.948,7.948,0,0,0,1.657-1.587ZM9.664,12.172A3.988,3.988,0,0,1,7.358,12.1L4.33,15.051a8.024,8.024,0,0,0,8.361.141L9.659,12.172Zm-2.945-.358A3.833,3.833,0,0,1,5.14,10.15L2.181,13.033a7.917,7.917,0,0,0,.847.988,7.372,7.372,0,0,0,.755.653l2.931-2.856ZM4.892,9.47A3.731,3.731,0,0,1,4.767,8.5a3.792,3.792,0,0,1,.207-1.233l-3-2.987a7.7,7.7,0,0,0-.156,8.183l3.074-3Zm.373-2.833A3.833,3.833,0,0,1,6.949,5.077L4.026,2.167a8.546,8.546,0,0,0-.989.825,8.241,8.241,0,0,0-.676.757l2.9,2.892ZM10.9,6.274a3.234,3.234,0,0,0-4.528,0,3.119,3.119,0,0,0,0,4.461,3.234,3.234,0,0,0,4.528,0,3.119,3.119,0,0,0,0-4.461Z" transform="translate(0 0)"/></svg>