<svg xmlns="http://www.w3.org/2000/svg" width="17.755" height="17.491" viewBox="0 0 17.755 17.491"><defs><style>.a{fill:#4d4d4d;}</style></defs><path class="a" d="M12.719,2.643a2.037,2.037,0,0,1,1.425.581,1.966,1.966,0,0,1,0,2.807,2.039,2.039,0,0,1-2.85,0,1.966,1.966,0,0,1,0-2.807A2.018,2.018,0,0,1,12.719,2.643ZM17.384,8.07l-9.441,9.3a.428.428,0,0,1-.594,0L-.128,10a.412.412,0,0,1,0-.585L9.312.119A.417.417,0,0,1,9.61,0h7.231a.413.413,0,0,1,.418.412V.434L17.5,7.769A.4.4,0,0,1,17.384,8.07ZM7.646,16.493l9.014-8.88L16.432.828H9.781L.763,9.712ZM13.657,3.7a1.336,1.336,0,0,0-1.875,0,1.289,1.289,0,0,0,0,1.847,1.336,1.336,0,0,0,1.875,0,1.289,1.289,0,0,0,0-1.847Z" transform="translate(0.25)"/></svg>