<svg xmlns="http://www.w3.org/2000/svg" width="16" height="16" viewBox="0 0 16 16"><defs><style>.a{fill:#5f65ff;}.b{fill:#fff;}</style></defs><g transform="translate(0)"><path class="a" d="M7.613,0A7.613,7.613,0,1,1,0,7.613,7.613,7.613,0,0,1,7.613,0Z" transform="translate(0.501 0.523)"/><path class="b" d="M0,8a8,8,0,1,1,2.343,5.657A7.975,7.975,0,0,1,0,8ZM5.49,6.706a.587.587,0,1,0-.818.841L7.6,10.391l.409-.421-.41.423a.589.589,0,0,0,.832-.013l.019-.02L11.33,7.547a.587.587,0,1,0-.818-.841l-2.5,2.445L5.49,6.706ZM3.175,3.175A6.824,6.824,0,1,0,8,1.177a6.8,6.8,0,0,0-4.825,2Z" transform="translate(0)"/></g></svg>