<svg xmlns="http://www.w3.org/2000/svg" width="14.696" height="14.55" viewBox="0 0 14.696 14.55">
  <g id="pup-up_header" data-name="pup-up header" transform="translate(0 0.3)">
    <path id="close-line" d="M-.089,1.694A.553.553,0,0,1,.694.911L6.75,6.967,12.806.911a.553.553,0,0,1,.783.783L7.533,7.75l6.056,6.056a.553.553,0,0,1-.783.783L6.75,8.533.694,14.589a.553.553,0,0,1-.783-.783L5.967,7.75Z" transform="translate(0.25 -0.75)" fill="#a3a3a3"/>
    <g id="pup-up_header-2" data-name="pup-up header" transform="translate(0 -2.999)">
      <path id="close-line-2" data-name="close-line" d="M-.089,1.694A.553.553,0,0,1,.694.911L6.75,6.967,12.806.911a.553.553,0,0,1,.783.783L7.533,7.75l6.056,6.056a.553.553,0,0,1-.783.783L6.75,8.533.694,14.589a.553.553,0,0,1-.783-.783L5.967,7.75Z" transform="translate(0.646 2.249)" fill="#a3a3a3" stroke="#a3a3a3" stroke-width="0.5"/>
    </g>
  </g>
</svg>
